<svg width="200" height="200" viewBox="0 0 200 200" fill="none" xmlns="http://www.w3.org/2000/svg">
<path d="M0 23C0 10.2974 10.2975 0 23 0H74C86.7025 0 97 10.2975 97 23V72C97 84.7025 86.7025 95 74 95H23C10.2975 95 0 84.7025 0 72V23Z" fill="white"/>
<path d="M103 23C103 10.2974 113.297 0 126 0H177C189.703 0 200 10.2975 200 23V72C200 84.7025 189.703 95 177 95H126C113.297 95 103 84.7025 103 72V23Z" fill="white"/>
<path d="M0 128C0 115.297 10.2975 105 23 105H74C86.7025 105 97 115.297 97 128V177C97 189.703 86.7025 200 74 200H23C10.2975 200 0 189.703 0 177V128Z" fill="white"/>
<path d="M103 128C103 115.297 113.297 105 126 105H177C189.703 105 200 115.297 200 128V177C200 189.703 189.703 200 177 200H126C113.297 200 103 189.703 103 177V128Z" fill="white"/>
</svg>
